<svg width="1190" height="214" viewBox="0 0 1190 214" fill="none" xmlns="http://www.w3.org/2000/svg">
<path d="M11.766 213.12C3.92202 213.12 2.43783e-05 209.198 2.43783e-05 201.354V14.874C2.43783e-05 7.17798 3.92202 3.32998 11.766 3.32998C19.462 3.32998 23.31 7.17798 23.31 14.874V36.186C37.37 14.282 62.826 3.32998 99.678 3.32998H112.11C139.786 3.32998 159.988 9.76798 172.716 22.644C185.592 35.372 192.03 55.574 192.03 83.25V201.354C192.03 209.198 188.182 213.12 180.486 213.12C172.642 213.12 168.72 209.198 168.72 201.354V83.25C168.72 62.086 164.502 47.36 156.066 39.072C147.778 30.784 133.126 26.64 112.11 26.64H99.678C76.738 26.64 58.682 30.266 45.51 37.518C32.338 44.77 24.938 56.092 23.31 71.484V201.354C23.31 209.198 19.462 213.12 11.766 213.12ZM345.144 213.12C317.468 213.12 297.192 206.756 284.316 194.028C271.44 181.152 265.002 160.95 265.002 133.422V83.25C265.002 55.278 271.44 34.928 284.316 22.2C297.192 9.32399 317.468 3.03399 345.144 3.32998H381.552C409.228 3.32998 429.43 9.76798 442.158 22.644C455.034 35.372 461.472 55.574 461.472 83.25V132.978C461.472 160.654 455.034 180.93 442.158 193.806C429.43 206.682 409.228 213.12 381.552 213.12H345.144ZM288.312 133.422C288.312 154.29 292.456 168.942 300.744 177.378C309.18 185.666 323.98 189.81 345.144 189.81H381.552C402.716 189.81 417.442 185.666 425.73 177.378C434.018 168.942 438.162 154.142 438.162 132.978V83.25C438.162 62.086 434.018 47.36 425.73 39.072C417.442 30.784 402.716 26.64 381.552 26.64H345.144C330.936 26.492 319.688 28.194 311.4 31.746C303.112 35.298 297.192 41.218 293.64 49.506C290.088 57.794 288.312 69.042 288.312 83.25V133.422ZM610.438 204.24C608.81 207.792 606.812 210.16 604.444 211.344C602.076 212.528 599.338 213.12 596.23 213.12C589.718 213.12 585.13 210.086 582.466 204.018L500.104 19.536C496.996 12.284 499.142 7.25198 506.542 4.43998C513.498 1.47999 518.53 3.55199 521.638 10.656L603.778 194.472H589.57L677.038 10.434C678.666 7.02998 680.812 4.80999 683.476 3.77399C686.14 2.73799 689.174 2.95998 692.578 4.43998C699.83 7.69598 701.828 12.876 698.572 19.98L610.438 204.24ZM817.761 213.12C790.085 213.12 769.809 206.756 756.933 194.028C744.057 181.152 737.619 160.95 737.619 133.422V83.25C737.619 55.278 744.057 34.928 756.933 22.2C769.809 9.32399 790.085 3.03399 817.761 3.32998H854.169C881.845 3.32998 902.047 9.76798 914.775 22.644C927.651 35.372 934.089 55.574 934.089 83.25V132.978C934.089 160.654 927.651 180.93 914.775 193.806C902.047 206.682 881.845 213.12 854.169 213.12H817.761ZM760.929 133.422C760.929 154.29 765.073 168.942 773.361 177.378C781.797 185.666 796.597 189.81 817.761 189.81H854.169C875.333 189.81 890.059 185.666 898.347 177.378C906.635 168.942 910.779 154.142 910.779 132.978V83.25C910.779 62.086 906.635 47.36 898.347 39.072C890.059 30.784 875.333 26.64 854.169 26.64H817.761C803.553 26.492 792.305 28.194 784.017 31.746C775.729 35.298 769.809 41.218 766.257 49.506C762.705 57.794 760.929 69.042 760.929 83.25V133.422ZM1057.09 212.676C1038.89 212.676 1024.98 208.828 1015.36 201.132C1005.74 193.288 999.967 181.374 998.043 165.39C997.599 161.542 998.413 158.582 1000.48 156.51C1002.56 154.29 1005.59 153.18 1009.59 153.18C1013.29 153.18 1016.02 154.142 1017.8 156.066C1019.72 157.99 1020.98 160.876 1021.57 164.724C1022.91 173.9 1026.24 180.338 1031.56 184.038C1037.04 187.59 1045.55 189.366 1057.09 189.366H1129.91C1143.67 189.366 1153.15 186.776 1158.33 181.596C1163.51 176.416 1166.1 166.944 1166.1 153.18C1166.1 139.268 1163.51 129.722 1158.33 124.542C1153.15 119.362 1143.67 116.772 1129.91 116.772H1057.98C1038.74 116.772 1024.39 112.184 1014.91 103.008C1005.59 93.684 1000.93 79.402 1000.93 60.162C1000.93 40.478 1005.59 26.048 1014.91 16.872C1024.24 7.54799 1038.59 2.88599 1057.98 2.88599H1127.69C1161.14 2.88599 1179.71 17.686 1183.41 47.286C1184 51.134 1183.19 54.168 1180.97 56.388C1178.9 58.46 1175.94 59.496 1172.09 59.496C1168.39 59.496 1165.58 58.534 1163.65 56.61C1161.88 54.686 1160.62 51.874 1159.88 48.174C1158.84 39.886 1155.81 34.188 1150.78 31.08C1145.89 27.824 1138.2 26.196 1127.69 26.196H1057.98C1045.11 26.196 1036.23 28.564 1031.34 33.3C1026.61 38.036 1024.24 46.99 1024.24 60.162C1024.24 72.742 1026.68 81.474 1031.56 86.358C1036.45 91.094 1045.25 93.462 1057.98 93.462H1129.91C1150.33 93.462 1165.36 98.346 1174.98 108.114C1184.6 117.734 1189.41 132.756 1189.41 153.18C1189.41 173.456 1184.6 188.478 1174.98 198.246C1165.36 207.866 1150.33 212.676 1129.91 212.676H1057.09Z" fill="#E7FFFE"/>
</svg>
